# Blender v2.79 (sub 0) OBJ File: ''
# www.blender.org
mtllib floor1up.mtl
o floor1UP_Plane.015
v 5.000000 3.011285 -7.000000
v 9.000001 3.011285 -9.000000
v 5.000000 3.011285 -9.000000
v 9.000001 3.011285 -5.000000
v 13.000000 3.011285 -5.000000
v 13.000000 3.011285 1.000000
v -1.500000 3.011285 3.000000
v -4.000000 3.011285 -5.000000
v -1.500000 3.011285 -5.000000
v 0.500000 3.011285 -7.000000
v 0.500000 3.011285 3.000000
v -4.000000 3.011285 1.000000
v -8.000000 3.011285 3.000000
v -8.000000 3.011285 1.000000
v -10.000000 3.011285 5.000000
v -10.000000 3.011285 -1.000000
v -6.000000 3.011285 -1.000000
v -6.000000 3.011285 -7.000000
v -1.500000 3.011285 -7.000000
v -1.500000 3.011285 -9.000000
v 1.000000 3.011285 -11.004547
v -18.000000 3.011285 5.000000
v -18.000000 3.011285 -3.100000
v -20.000000 3.011285 -3.100000
v -5.500000 3.011285 7.000000
v 13.000000 3.011285 5.000000
v 13.000000 3.011285 3.000000
v 15.000000 3.011285 3.000000
v 17.100002 3.011285 3.000000
v 3.000000 3.011285 -11.000000
v 1.000000 3.011285 -9.000000
v 3.000000 3.011285 -9.000000
v 12.000000 3.011285 -11.000000
v 15.000000 3.011285 -7.000000
v 17.100002 3.011285 1.000000
v 15.000000 3.011285 1.000000
v 12.000000 3.011285 -7.000000
v 13.000000 3.011285 -7.000000
v -5.500000 3.011285 5.000000
v 0.430000 3.011285 5.000000
v 1.000000 3.000000 2.900000
v 10.900000 3.000000 2.900000
v 1.051761 2.999317 -3.048239
v 10.848238 2.999317 -3.048239
v 17.088198 2.899835 11.907624
v 17.088198 2.899835 0.092376
v -25.407623 2.899940 -3.081963
v -13.565570 2.899940 -3.081963
v -25.407623 2.899940 -11.004547
v -13.565570 2.899940 -11.004547
v -13.565570 2.899940 -9.000000
v 1.092376 3.042376 8.907624
v 4.907624 3.042376 8.907624
v 1.092376 3.042376 5.092376
v 4.907624 3.042376 5.092376
v -5.407624 3.042376 8.907624
v 0.407624 3.042376 8.907624
v -5.407624 3.042376 5.092376
v 0.407624 3.042376 5.092376
v 24.934723 2.899835 0.092376
v 24.934723 2.899835 11.907624
v 3.666667 3.011285 5.000000
v 2.333333 3.011285 5.000000
v 3.635875 3.042376 5.092376
v 2.364125 3.042376 5.092376
v -2.500000 3.011285 5.000000
v -0.570000 3.011285 5.000000
v -1.500000 3.011285 5.000000
v 11.000000 3.011285 1.000000
v 11.000000 3.011285 3.000000
v 12.000000 3.011285 -5.000000
v 9.000000 3.011285 -11.000000
v -10.000000 3.011285 3.000000
v -20.000000 3.011285 5.000000
v -20.000000 3.011285 7.000000
v -8.000000 3.011285 -1.000000
v -4.000000 3.011285 -1.000000
v -10.000000 3.011285 1.000000
v -6.000000 3.011285 -5.000000
v -13.565570 2.899940 -4.995893
v -13.565570 2.899940 -6.965101
v 12.102180 2.905058 -7.113598
v 17.927235 2.905058 -7.113598
v 12.102180 2.905058 -12.891935
v 17.927235 2.905058 -12.891935
v 0.430000 3.111285 5.100000
v -0.570000 3.111285 5.100000
v -2.500000 3.111285 5.100000
v -1.500000 3.111285 5.100000
vt -1.065960 -1.787353
vt -1.065959 2.744209
vt 2.445098 2.744210
vt 2.445098 -1.787353
vt 2.473340 3.335370
vt 2.473340 -1.206471
vt 1.576373 -1.206471
vt 0.665823 -1.206471
vt -0.215332 -1.206471
vt -1.071752 -1.206471
vt -1.071753 3.335370
vt 0.021728 0.556318
vt 0.590793 0.556319
vt 1.159858 0.556319
vt 1.728924 0.556318
vt 1.728924 -0.906964
vt 0.021727 -0.906963
vt 1.661494 1.831212
vt 1.661493 -0.399139
vt -0.045704 -0.399139
vt -0.045703 1.831212
vt -0.424347 -1.445881
vt -0.424347 2.351113
vt 2.237292 2.331262
vt 2.237292 -1.426029
vt -1.729377 -6.064896
vt -1.729377 -5.259473
vt -0.834444 -5.259473
vt -0.834443 -6.064897
vt -1.729378 -4.492404
vt -0.834444 -4.492404
vt 1.850356 -4.492404
vt 2.745289 -4.492404
vt 2.745290 -5.259473
vt 1.850356 -4.108869
vt 2.745289 -4.108869
vt 1.850355 -2.958264
vt 3.640221 -2.958264
vt 4.535155 -2.958264
vt 4.535155 -4.108869
vt 4.535153 -0.657054
vt 3.640221 -1.424124
vt 3.640220 -0.657054
vt 2.745288 -1.424124
vt 2.745287 0.301783
vt 2.745286 1.068852
vt 3.640220 1.068852
vt 3.640220 0.110015
vt 4.537189 0.110015
vt 3.640230 5.696463
vt 4.537197 5.696462
vt -1.729378 -3.725334
vt -0.834444 -3.725334
vt -3.519248 2.602991
vt -3.519249 8.164246
vt -2.624317 8.164247
vt -2.624316 7.397177
vt -2.624314 4.328898
vt -2.624315 2.602991
vt 1.000164 7.397178
vt 1.000164 8.164247
vt -1.729380 0.301782
vt -1.729380 1.068852
vt 1.850354 1.068852
vt 0.060486 2.027689
vt -0.834447 2.027689
vt -0.834447 3.561828
vt -0.834448 4.328898
vt 0.060485 4.328898
vt 0.060486 3.561828
vt 0.060486 2.794759
vt -2.624311 -4.492404
vt -2.624313 -0.912745
vt -2.624312 -0.401366
vt -2.624313 0.328630
vt -2.624313 0.712164
vt -2.624313 1.068851
vt -2.624314 1.452386
vt -1.729381 4.328898
vt -1.729381 3.561828
vt 1.850353 2.027689
vt 1.850353 2.794759
vt 2.745286 2.794759
vt 1.848524 5.696462
vt 2.729680 5.696463
vt -0.635756 1.833225
vt -0.635757 -0.400887
vt 1.949856 -0.400888
vt 1.949857 1.833224
vt -2.669070 0.328590
vt -2.669070 0.712125
vt -2.669069 1.068812
vt -2.669070 1.452347
vn 0.0000 -1.0000 0.0000
vn 0.0000 -1.0000 0.0001
vn 0.0076 -1.0000 0.0048
vn 0.0147 -0.9999 0.0000
vn 0.0000 -0.7071 0.7071
usemtl None
s off
f 45/1/1 46/2/1 60/3/1 61/4/1
f 49/5/1 50/6/1 51/7/1 81/8/1 80/9/1 48/10/1 47/11/1
f 54/12/1 65/13/1 64/14/1 55/15/1 53/16/1 52/17/1
f 58/18/1 59/19/1 57/20/1 56/21/1
f 42/22/2 41/23/2 43/24/2 44/25/2
f 29/26/1 28/27/1 36/28/1 35/29/1
f 28/27/1 27/30/1 6/31/1 5/32/1 38/33/1 34/34/1 36/28/1
f 5/32/1 71/35/1 37/36/1 38/33/1
f 4/37/1 2/38/1 72/39/1 33/40/1 37/36/1 71/35/1
f 30/41/1 72/39/1 2/38/1 3/42/1 32/43/1
f 3/42/1 1/44/1 10/45/1 19/46/1 20/47/1 31/48/1 32/43/1
f 21/49/3 31/48/3 20/47/3 51/50/3 50/51/3
f 6/31/1 27/30/1 70/52/1 69/53/1
f 25/54/1 75/55/1 74/56/1 22/57/1 15/58/1 39/59/1
f 23/60/1 22/57/1 74/56/1 24/61/1
f 10/45/1 11/62/1 7/63/1 9/64/1 19/46/1
f 77/65/1 12/66/1 14/67/1 78/68/1 16/69/1 76/70/1 17/71/1
f 27/30/1 26/72/1 62/73/1 63/74/1 40/75/1 67/76/1 68/77/1 66/78/1 39/59/1 15/58/1 73/79/1 13/80/1 7/63/1 11/62/1 70/52/1
f 14/67/1 13/80/1 73/79/1 78/68/1
f 9/64/1 8/81/1 79/82/1 18/83/1 19/46/1
f 17/71/1 79/82/1 8/81/1 77/65/1
f 18/83/4 79/82/4 80/84/4 81/85/4
f 84/86/1 85/87/1 83/88/1 82/89/1
f 40/75/5 86/90/5 87/91/5 67/76/5
f 68/77/5 89/92/5 88/93/5 66/78/5
