# Wavefront Obj file
# 
# verts: 16 uv-s: 45
mtllib showerDoor.mtl

g showerDoor
#pivot -69.044540 91.579857 0.000004

v -69.044540 175.868256 1.782049
v -129.797806 175.868256 1.782049
v -69.044540 7.291451 1.782077
v -129.797806 7.291451 1.782077
v -129.797806 7.291451 -1.782041
v -69.044540 7.291451 -1.782041
v -129.797806 175.868256 -1.782069
v -69.044540 175.868256 -1.782069
v -121.033653 98.212128 -5.518861
v -125.814041 98.212128 -5.518861
v -121.033653 84.947594 -5.518859
v -125.814041 84.947594 -5.518859
v -121.033653 84.947594 5.585014
v -121.033653 98.212128 5.585012
v -125.814041 84.947594 5.585014
v -125.814041 98.212128 5.585012
# 16 positions

vt 0.897643 1.000000
vt 0.872772 1.000000
vt 0.872772 0.000000
vt 0.897643 0.000000
vt 0.872772 0.000000
vt 0.872772 1.000000
vt 0.847901 1.000000
vt 0.847901 0.000000
vt 0.423950 0.000000
vt 0.423950 1.000000
vt 0.000000 1.000000
vt 0.000000 0.000000
vt 0.423950 1.000000
vt 0.423950 0.000000
vt 0.897643 0.360389
vt 0.922514 0.360389
vt 0.922515 0.720778
vt 0.897643 0.720778
vt 0.922515 0.360389
vt 0.897643 0.360389
vt 0.922514 0.000000
vt 0.922515 0.078685
vt 0.955873 0.078685
vt 0.955873 0.157371
vt 0.922515 0.157371
vt 0.955873 0.157371
vt 0.955873 0.236056
vt 0.922515 0.236056
vt 0.922515 0.157371
vt 0.922515 0.078685
vt 0.922515 0.000000
vt 1.000000 0.000000
vt 1.000000 0.078685
vt 0.922515 0.301924
vt 0.955873 0.301924
vt 0.955873 0.367793
vt 0.922515 0.367793
vt 0.955873 0.301924
vt 0.922515 0.301924
vt 0.922515 0.236056
vt 0.955873 0.236056
vt 0.975129 0.720778
vt 0.975129 0.799464
vt 0.897643 0.799464
vt 0.897643 0.720778
# 45 texture coordinates

vn 1.000000 0.000000 0.000000
vn 1.000000 0.000000 0.000000
vn 1.000000 0.000000 0.000000
vn 1.000000 0.000000 0.000000
vn -1.000000 0.000000 0.000000
vn -1.000000 0.000000 0.000000
vn -1.000000 0.000000 0.000000
vn -1.000000 0.000000 0.000000
vn 0.000000 -0.000000 -1.000000
vn 0.000000 -0.000000 -1.000000
vn 0.000000 -0.000000 -1.000000
vn 0.000000 -0.000000 -1.000000
vn 0.000000 0.000000 1.000000
vn 0.000000 0.000000 1.000000
vn 0.000000 0.000000 1.000000
vn 0.000000 0.000000 1.000000
vn 0.000000 1.000000 0.000000
vn 0.000000 1.000000 0.000000
vn 0.000000 1.000000 0.000000
vn 0.000000 1.000000 0.000000
vn 0.000000 -1.000000 0.000000
vn 0.000000 -1.000000 0.000000
vn 0.000000 -1.000000 0.000000
vn 0.000000 -1.000000 0.000000
vn 0.000000 -0.000000 -1.000000
vn 0.000000 -0.000000 -1.000000
vn 0.000000 -0.000000 -1.000000
vn 0.000000 -0.000000 -1.000000
vn 0.000000 0.000000 1.000000
vn 0.000000 0.000000 1.000000
vn 0.000000 0.000000 1.000000
vn 0.000000 0.000000 1.000000
vn 1.000000 0.000000 0.000000
vn 1.000000 0.000000 0.000000
vn 1.000000 0.000000 0.000000
vn 1.000000 0.000000 0.000000
vn 0.000000 -1.000000 0.000000
vn 0.000000 -1.000000 0.000000
vn 0.000000 -1.000000 0.000000
vn 0.000000 -1.000000 0.000000
vn 0.000000 1.000000 0.000000
vn 0.000000 1.000000 0.000000
vn 0.000000 1.000000 0.000000
vn 0.000000 1.000000 0.000000
vn -1.000000 0.000000 0.000000
vn -1.000000 0.000000 0.000000
vn -1.000000 0.000000 0.000000
vn -1.000000 0.000000 0.000000
# 48 normals

usemtl 
s 1
f 8/1/1 1/2/2 3/3/3 6/4/4
s 2
f 7/5/5 5/6/6 4/7/7 2/8/8
s 3
f 8/9/9 6/10/10 5/11/11 7/12/12
s 4
f 2/8/13 4/7/14 3/13/15 1/14/16
s 5
f 1/15/17 8/16/18 7/17/19 2/18/20
s 6
f 4/19/21 5/20/22 6/4/23 3/21/24
s 7
f 10/22/25 9/23/26 11/24/27 12/25/28
s 8
f 16/26/29 15/27/30 13/28/31 14/29/32
s 9
f 11/30/33 9/31/34 14/32/35 13/33/36
s 10
f 12/34/37 11/35/38 13/36/39 15/37/40
s 11
f 9/38/41 10/39/42 16/40/43 14/41/44
s 12
f 10/42/45 12/43/46 15/44/47 16/45/48

# 12 faces
